<svg width="16" height="16" viewBox="0 0 16 16" fill="none" xmlns="http://www.w3.org/2000/svg">
<path d="M8.84653 15.5H7.16653C6.69986 15.5 6.27986 15.2999 5.99986 14.9599C5.75319 14.6533 5.65986 14.26 5.74652 13.8866L6.01986 12.68C6.07319 12.4533 6.27319 12.2933 6.50652 12.2933H9.50652C9.73985 12.2933 9.93986 12.4533 9.9932 12.68L10.2665 13.8866C10.3532 14.2866 10.2732 14.6733 10.0265 14.98C9.75319 15.3066 9.32653 15.5 8.84653 15.5ZM6.90653 13.28L6.71986 14.1C6.69986 14.2 6.73986 14.28 6.77986 14.3266C6.86652 14.4333 7.00653 14.4933 7.16653 14.4933H8.84653C9.01986 14.4933 9.16652 14.44 9.24652 14.34C9.29985 14.2733 9.31319 14.1933 9.29319 14.0933L9.10653 13.2733H6.90653V13.28Z" fill="#1A2630"/>
<path d="M9.50676 13.28C9.36676 13.28 9.23343 13.2267 9.13343 13.1134C8.95343 12.9067 8.96676 12.5933 9.17343 12.4067L10.3268 11.38C10.7868 10.9733 10.7668 10.8734 10.4268 10.4467L8.39343 7.86668C8.28009 7.72668 8.14676 7.64667 8.00676 7.64667C7.86676 7.64667 7.73342 7.72668 7.62009 7.86668L5.58677 10.4467C5.22677 10.9067 5.23343 11.0067 5.67343 11.3667L6.84009 12.4067C7.04676 12.5867 7.06677 12.9067 6.8801 13.1134C6.69343 13.32 6.38009 13.34 6.17343 13.1533L5.0201 12.1266C4.1801 11.44 4.10676 10.7067 4.80009 9.82668L6.83343 7.24668C7.13343 6.86668 7.56009 6.64667 8.00676 6.64667C8.45343 6.64667 8.8801 6.86668 9.1801 7.24668L11.2134 9.82668C11.9001 10.6933 11.8334 11.3866 10.9934 12.1266L9.84009 13.1533C9.74009 13.24 9.62009 13.28 9.50676 13.28Z" fill="#1A2630"/>
<path d="M8.00659 9.60002C7.73326 9.60002 7.50659 9.37335 7.50659 9.10002V7.41333C7.50659 7.14 7.73326 6.91333 8.00659 6.91333C8.27993 6.91333 8.50659 7.14 8.50659 7.41333V9.10002C8.50659 9.38002 8.27993 9.60002 8.00659 9.60002Z" fill="#1A2630"/>
<path d="M8.34676 3.83331H7.68009C7.04009 3.83331 6.51343 3.30665 6.51343 2.66665V1.99998C6.51343 1.35998 7.04009 0.833313 7.68009 0.833313H8.34676C8.98676 0.833313 9.51343 1.35998 9.51343 1.99998V2.66665C9.51343 3.30665 8.99343 3.83331 8.34676 3.83331ZM7.68009 1.83331C7.58676 1.83331 7.51343 1.90665 7.51343 1.99998V2.66665C7.51343 2.75998 7.58676 2.83331 7.68009 2.83331H8.34676C8.44009 2.83331 8.51343 2.75998 8.51343 2.66665V1.99998C8.51343 1.90665 8.44009 1.83331 8.34676 1.83331H7.68009Z" fill="#1A2630"/>
<path d="M2.84676 9.94663H2.18009C1.54009 9.94663 1.01343 9.41997 1.01343 8.77997V8.1133C1.01343 7.4733 1.54009 6.94659 2.18009 6.94659H2.84676C3.48676 6.94659 4.01343 7.4733 4.01343 8.1133V8.77997C4.01343 9.41997 3.48676 9.94663 2.84676 9.94663ZM2.18009 7.94659C2.08676 7.94659 2.01343 8.01997 2.01343 8.1133V8.77997C2.01343 8.8733 2.08676 8.94663 2.18009 8.94663H2.84676C2.94009 8.94663 3.01343 8.8733 3.01343 8.77997V8.1133C3.01343 8.01997 2.94009 7.94659 2.84676 7.94659H2.18009Z" fill="#1A2630"/>
<path d="M13.8199 9.94663H13.1532C12.5132 9.94663 11.9866 9.41997 11.9866 8.77997V8.1133C11.9866 7.4733 12.5132 6.94659 13.1532 6.94659H13.8199C14.4599 6.94659 14.9866 7.4733 14.9866 8.1133V8.77997C14.9866 9.41997 14.4666 9.94663 13.8199 9.94663ZM13.1532 7.94659C13.0599 7.94659 12.9866 8.01997 12.9866 8.1133V8.77997C12.9866 8.8733 13.0599 8.94663 13.1532 8.94663H13.8199C13.9132 8.94663 13.9866 8.8733 13.9866 8.77997V8.1133C13.9866 8.01997 13.9132 7.94659 13.8199 7.94659H13.1532Z" fill="#1A2630"/>
<path d="M2.5 7.94669C2.22667 7.94669 2 7.72002 2 7.44669C2 4.60002 4.13333 2.2067 6.96 1.87337C7.23333 1.8467 7.48 2.04002 7.51334 2.31335C7.54667 2.58668 7.34667 2.83336 7.07333 2.86669C4.75333 3.14003 3 5.10669 3 7.44669C3 7.72002 2.77333 7.94669 2.5 7.94669Z" fill="#1A2630"/>
<path d="M13.5001 7.94667C13.2268 7.94667 13.0001 7.72 13.0001 7.44667C13.0001 5.12 11.2601 3.15335 8.95342 2.87335C8.68009 2.84001 8.48676 2.59334 8.52009 2.32C8.55343 2.04667 8.80009 1.84669 9.08009 1.88669C11.8868 2.22669 14.0068 4.62001 14.0068 7.45334C14.0001 7.72001 13.7801 7.94667 13.5001 7.94667Z" fill="#1A2630"/>
</svg>
