<svg width="36" height="36" viewBox="0 0 36 36" fill="none" xmlns="http://www.w3.org/2000/svg">
<rect width="36" height="36" rx="4" fill="#E9F4FF"/>
<path d="M11.9998 28.75C11.6998 28.75 11.3798 28.72 11.0598 28.66C10.8898 28.62 10.7398 28.58 10.5898 28.54C10.4198 28.49 10.2597 28.43 10.1097 28.37C10.0697 28.36 10.0398 28.34 10.0098 28.33C9.65977 28.15 9.35975 27.97 9.08975 27.77C9.06975 27.76 9.05976 27.74 9.03976 27.73C8.88976 27.61 8.74975 27.49 8.61975 27.35C8.47975 27.2 8.37974 27.08 8.26974 26.96C8.03974 26.66 7.84975 26.36 7.67975 26.01C7.65975 25.98 7.64977 25.94 7.63977 25.9C7.57977 25.76 7.52975 25.62 7.48975 25.47C7.42975 25.26 7.38974 25.12 7.35974 24.97C7.28974 24.62 7.25977 24.31 7.25977 24.01V10.51C7.25977 8.60001 8.59977 7.26001 10.5098 7.26001H13.5098C15.4198 7.26001 16.7598 8.60001 16.7598 10.51V24C16.7598 25.24 16.2798 26.42 15.4098 27.31C15.2498 27.47 15.1297 27.58 15.0197 27.67C14.6997 27.95 14.2898 28.2 13.8498 28.38C13.7498 28.42 13.6298 28.47 13.4998 28.52C13.0098 28.67 12.4998 28.75 11.9998 28.75ZM10.7397 27C10.8397 27.04 10.9398 27.07 11.0398 27.1C11.1498 27.13 11.2598 27.16 11.3698 27.19C11.9198 27.29 12.5098 27.26 12.9798 27.1C13.0498 27.07 13.1497 27.04 13.2397 27C13.5597 26.87 13.8197 26.71 14.0497 26.52C14.1497 26.44 14.2198 26.37 14.2898 26.31C14.9198 25.66 15.2498 24.86 15.2498 24.01V10.51C15.2498 9.43001 14.5798 8.76001 13.4998 8.76001H10.4998C9.41976 8.76001 8.74976 9.43001 8.74976 10.51V24C8.74976 24.21 8.76976 24.43 8.81976 24.66C8.83976 24.75 8.86975 24.86 8.89975 24.98C8.93975 25.09 8.96977 25.18 9.00977 25.28C9.02977 25.31 9.03974 25.34 9.04974 25.36C9.05974 25.38 9.06974 25.41 9.07974 25.43C9.19974 25.65 9.31977 25.84 9.44977 26.01C9.51977 26.09 9.60977 26.19 9.69977 26.29C9.80977 26.41 9.89976 26.48 9.99976 26.56C10.0098 26.57 10.0298 26.58 10.0398 26.59C10.1998 26.71 10.3798 26.82 10.5898 26.93C10.6098 26.94 10.6297 26.94 10.6497 26.95C10.6697 26.96 10.6997 26.98 10.7397 27Z" fill="#1A2630"/>
<path d="M25.5 28.75H12C11.59 28.75 11.25 28.41 11.25 28C11.25 27.59 11.59 27.25 12 27.25C12.35 27.25 12.69 27.2 12.98 27.1C13.05 27.07 13.15 27.04 13.24 27C13.56 26.87 13.82 26.71 14.05 26.52C14.15 26.44 14.22 26.37 14.29 26.31L21.13 19.48C21.27 19.34 21.46 19.26 21.66 19.26H25.5C27.41 19.26 28.75 20.6 28.75 22.51V25.51C28.75 27.41 27.41 28.75 25.5 28.75ZM15.46 27.25H25.5C26.58 27.25 27.25 26.58 27.25 25.5V22.5C27.25 21.42 26.58 20.75 25.5 20.75H21.97L15.46 27.25Z" fill="#1A2630"/>
<path d="M10.8102 28.57C10.7402 28.57 10.6702 28.56 10.6002 28.54C9.86021 28.32 9.18022 27.91 8.64022 27.36C8.10022 26.83 7.6902 26.15 7.4702 25.41C7.3502 25.01 7.5702 24.6 7.9702 24.48C8.3702 24.36 8.78021 24.58 8.91021 24.97C9.23021 25.99 10.0302 26.79 11.0502 27.11C11.4402 27.23 11.6602 27.65 11.5402 28.05C11.4302 28.36 11.1302 28.57 10.8102 28.57Z" fill="#1A2630"/>
<path d="M14.86 27.54C14.67 27.54 14.48 27.47 14.33 27.32C14.04 27.03 14.03 26.56 14.32 26.26C14.92 25.65 15.25 24.84 15.25 23.99V14.33C15.25 14.13 15.33 13.94 15.47 13.8L18.18 11.09C19.49 9.77998 21.47 9.77998 22.78 11.09L24.9 13.21C26.25 14.56 26.25 16.46 24.9 17.81L15.39 27.31C15.24 27.47 15.05 27.54 14.86 27.54ZM16.75 14.65V23.84L23.84 16.76C24.6 16 24.6 15.05 23.84 14.28L21.72 12.16C20.97 11.41 19.99 11.41 19.24 12.16L16.75 14.65Z" fill="#1A2630"/>
<path d="M12 25.75C11.04 25.75 10.25 24.96 10.25 24C10.25 23.04 11.04 22.25 12 22.25C12.96 22.25 13.75 23.04 13.75 24C13.75 24.96 12.96 25.75 12 25.75ZM12 23.75C11.86 23.75 11.75 23.86 11.75 24C11.75 24.28 12.25 24.28 12.25 24C12.25 23.86 12.14 23.75 12 23.75Z" fill="#1A2630"/>
</svg>
