<svg width="16" height="16" viewBox="0 0 16 16" fill="none" xmlns="http://www.w3.org/2000/svg">
<path d="M9.99992 15.1666H5.99992C2.37992 15.1666 0.833252 13.62 0.833252 9.99998V5.99998C0.833252 2.37998 2.37992 0.833313 5.99992 0.833313H9.99992C13.6199 0.833313 15.1666 2.37998 15.1666 5.99998V9.99998C15.1666 13.62 13.6199 15.1666 9.99992 15.1666ZM5.99992 1.83331C2.92659 1.83331 1.83325 2.92665 1.83325 5.99998V9.99998C1.83325 13.0733 2.92659 14.1666 5.99992 14.1666H9.99992C13.0733 14.1666 14.1666 13.0733 14.1666 9.99998V5.99998C14.1666 2.92665 13.0733 1.83331 9.99992 1.83331H5.99992Z" fill="#1A2630"/>
<path d="M6.39989 10.52C6.27322 10.52 6.14655 10.4733 6.04655 10.3733L4.38655 8.71334C3.99322 8.32001 3.99322 7.68668 4.38655 7.29334L6.04655 5.63334C6.23989 5.44001 6.55989 5.44001 6.75322 5.63334C6.94655 5.82668 6.94655 6.14668 6.75322 6.34001L5.09322 8.00001L6.75322 9.66668C6.94655 9.86001 6.94655 10.18 6.75322 10.3733C6.65322 10.4667 6.52655 10.52 6.39989 10.52Z" fill="#1A2630"/>
<path d="M9.5999 10.52C9.47323 10.52 9.34656 10.4734 9.24656 10.3734C9.05323 10.18 9.05323 9.86002 9.24656 9.66669L10.9066 8.00002L9.24656 6.33336C9.05323 6.14002 9.05323 5.82002 9.24656 5.62669C9.4399 5.43336 9.7599 5.43336 9.95323 5.62669L11.6132 7.28669C12.0066 7.68002 12.0066 8.31336 11.6132 8.70669L9.95323 10.3667C9.8599 10.4667 9.72656 10.52 9.5999 10.52Z" fill="#1A2630"/>
</svg>
